<svg xmlns="http://www.w3.org/2000/svg" xmlns:xlink="http://www.w3.org/1999/xlink" width="200" zoomAndPan="magnify" viewBox="0 0 150 74.999997" height="100" preserveAspectRatio="xMidYMid meet" version="1.0"><defs><clipPath id="f5866d31ef"><path d="M 45 29.316406 L 105 29.316406 L 105 45.816406 L 45 45.816406 Z M 45 29.316406 " clip-rule="nonzero"/></clipPath></defs><g clip-path="url(#f5866d31ef)"><path fill="#32ba55" d="M 73.828125 38.851562 C 73.835938 39.296875 74.015625 39.722656 74.332031 40.035156 L 74.878906 40.457031 C 75.085938 40.539062 75.296875 40.582031 75.546875 40.582031 C 75.757812 40.582031 75.96875 40.539062 76.21875 40.414062 C 76.429688 40.328125 76.597656 40.203125 76.761719 40.035156 C 77.0625 39.714844 77.230469 39.292969 77.222656 38.851562 C 77.230469 38.414062 77.0625 37.988281 76.761719 37.671875 C 76.609375 37.496094 76.425781 37.351562 76.21875 37.246094 C 76.007812 37.15625 75.777344 37.113281 75.546875 37.121094 C 75.296875 37.121094 75.085938 37.164062 74.878906 37.289062 C 74.667969 37.375 74.457031 37.5 74.332031 37.671875 C 74.015625 37.980469 73.835938 38.40625 73.828125 38.851562 Z M 79.195312 41.808594 C 79.195312 43.074219 78.859375 44.085938 78.1875 44.761719 C 77.558594 45.480469 76.554688 45.816406 75.210938 45.816406 C 74.585938 45.816406 73.996094 45.734375 73.410156 45.605469 C 73.015625 45.523438 72.632812 45.382812 72.277344 45.183594 C 71.945312 44.972656 71.859375 44.59375 72.070312 44.339844 L 72.613281 43.496094 C 72.78125 43.242188 73.117188 43.199219 73.367188 43.371094 L 73.996094 43.664062 C 74.367188 43.828125 74.765625 43.917969 75.171875 43.917969 C 75.839844 43.917969 76.261719 43.707031 76.597656 43.453125 C 76.972656 43.160156 77.140625 42.777344 77.140625 42.1875 C 77.140625 42.0625 77.015625 42.019531 76.929688 42.0625 C 76.636719 42.230469 76.09375 42.484375 75.085938 42.484375 C 72.90625 42.484375 71.652344 40.371094 71.652344 38.851562 C 71.652344 37.898438 72.027344 36.988281 72.695312 36.316406 C 73.363281 35.640625 74.269531 35.261719 75.210938 35.261719 C 76.679688 35.261719 77.222656 35.9375 77.222656 35.9375 L 77.222656 35.601562 C 77.222656 35.515625 77.308594 35.390625 77.433594 35.390625 L 79.027344 35.390625 C 79.152344 35.390625 79.195312 35.515625 79.195312 35.601562 Z M 65.449219 38.851562 C 65.453125 39.296875 65.636719 39.722656 65.949219 40.035156 L 66.496094 40.457031 C 66.703125 40.539062 66.914062 40.582031 67.167969 40.582031 C 67.375 40.582031 67.585938 40.539062 67.835938 40.414062 C 68.046875 40.328125 68.214844 40.203125 68.382812 40.035156 C 68.683594 39.714844 68.847656 39.292969 68.84375 38.851562 C 68.847656 38.414062 68.683594 37.988281 68.382812 37.671875 C 68.226562 37.496094 68.042969 37.351562 67.835938 37.246094 C 67.625 37.15625 67.394531 37.113281 67.167969 37.121094 C 66.914062 37.121094 66.703125 37.164062 66.496094 37.289062 C 66.285156 37.375 66.078125 37.5 65.949219 37.671875 C 65.636719 37.980469 65.453125 38.40625 65.449219 38.851562 Z M 70.8125 41.808594 C 70.8125 43.074219 70.476562 44.085938 69.804688 44.761719 C 69.175781 45.480469 68.171875 45.816406 66.832031 45.816406 C 66.203125 45.816406 65.617188 45.734375 65.027344 45.605469 C 64.632812 45.523438 64.25 45.382812 63.898438 45.183594 C 63.5625 44.972656 63.476562 44.59375 63.6875 44.339844 L 64.230469 43.496094 C 64.398438 43.242188 64.734375 43.199219 64.988281 43.371094 L 65.574219 43.664062 C 65.957031 43.835938 66.371094 43.921875 66.789062 43.917969 C 67.460938 43.917969 67.878906 43.707031 68.214844 43.453125 C 68.589844 43.160156 68.757812 42.777344 68.757812 42.1875 C 68.757812 42.0625 68.632812 42.019531 68.550781 42.0625 C 68.253906 42.230469 67.710938 42.484375 66.703125 42.484375 C 64.527344 42.484375 63.269531 40.371094 63.269531 38.851562 C 63.269531 37.898438 63.644531 36.988281 64.3125 36.316406 C 64.980469 35.640625 65.886719 35.261719 66.832031 35.261719 C 68.296875 35.261719 68.84375 35.9375 68.84375 35.9375 L 68.84375 35.601562 C 68.84375 35.515625 68.925781 35.390625 69.050781 35.390625 L 70.644531 35.390625 C 70.769531 35.390625 70.8125 35.515625 70.8125 35.601562 Z M 60.292969 35.898438 L 62.09375 35.898438 C 62.179688 35.898438 62.261719 35.980469 62.261719 36.066406 L 62.261719 42.230469 C 62.261719 42.3125 62.136719 42.398438 62.054688 42.398438 L 60.335938 42.398438 C 60.207031 42.398438 60.125 42.3125 60.125 42.230469 L 60.125 36.109375 C 60.125 36.066406 60.167969 35.9375 60.292969 35.9375 Z M 59.957031 33.828125 C 59.957031 33.53125 60.082031 33.320312 60.25 33.152344 C 60.480469 32.910156 60.792969 32.761719 61.128906 32.738281 C 61.460938 32.714844 61.789062 32.816406 62.054688 33.027344 C 62.347656 33.238281 62.472656 33.617188 62.472656 33.996094 C 62.472656 34.25 62.347656 34.417969 62.179688 34.628906 C 61.949219 34.875 61.636719 35.023438 61.300781 35.046875 C 60.96875 35.070312 60.636719 34.964844 60.375 34.757812 C 60.234375 34.640625 60.121094 34.492188 60.046875 34.324219 C 59.976562 34.152344 59.945312 33.96875 59.957031 33.785156 Z M 91.222656 37.375 L 89.796875 37.375 C 89.753906 37.375 89.710938 37.390625 89.679688 37.425781 C 89.648438 37.457031 89.628906 37.5 89.628906 37.542969 L 89.628906 40.035156 L 89.796875 40.457031 C 89.839844 40.539062 89.921875 40.625 90.050781 40.667969 L 90.59375 40.75 C 90.792969 40.742188 90.988281 40.710938 91.179688 40.667969 C 91.304688 40.667969 91.390625 40.710938 91.390625 40.835938 L 91.390625 42.101562 C 91.390625 42.1875 91.347656 42.273438 91.265625 42.273438 C 91.097656 42.355469 90.886719 42.355469 90.71875 42.398438 L 90.007812 42.441406 C 89.671875 42.441406 89.335938 42.441406 89.042969 42.3125 C 88.785156 42.246094 88.542969 42.132812 88.332031 41.976562 C 88.121094 41.820312 87.949219 41.617188 87.828125 41.386719 C 87.703125 41.09375 87.644531 40.773438 87.660156 40.457031 L 87.660156 37.542969 C 87.660156 37.519531 87.65625 37.5 87.648438 37.480469 C 87.640625 37.457031 87.625 37.441406 87.609375 37.425781 C 87.59375 37.40625 87.578125 37.394531 87.558594 37.386719 C 87.535156 37.378906 87.515625 37.375 87.492188 37.375 L 86.527344 37.375 C 86.484375 37.375 86.441406 37.355469 86.410156 37.324219 C 86.378906 37.292969 86.359375 37.25 86.359375 37.207031 L 86.359375 35.9375 C 86.359375 35.855469 86.445312 35.769531 86.527344 35.769531 L 87.492188 35.769531 C 87.578125 35.769531 87.660156 35.6875 87.660156 35.601562 L 87.660156 34.546875 C 87.660156 34.460938 87.660156 34.417969 87.742188 34.375 C 88.277344 34.054688 88.835938 33.789062 89.421875 33.574219 C 89.546875 33.574219 89.628906 33.617188 89.628906 33.742188 L 89.628906 35.601562 C 89.628906 35.6875 89.714844 35.769531 89.796875 35.769531 L 91.222656 35.769531 C 91.304688 35.769531 91.390625 35.855469 91.390625 35.9375 L 91.390625 37.207031 C 91.390625 37.289062 91.304688 37.375 91.222656 37.375 Z M 96.964844 38.09375 C 97.089844 38.09375 97.214844 37.964844 97.171875 37.796875 C 97.128906 37.554688 97.011719 37.335938 96.839844 37.164062 C 96.585938 36.910156 96.292969 36.785156 95.875 36.785156 C 95.472656 36.789062 95.085938 36.9375 94.785156 37.207031 C 94.660156 37.324219 94.558594 37.46875 94.492188 37.628906 L 94.40625 37.753906 C 94.367188 37.921875 94.492188 38.09375 94.617188 38.09375 Z M 98.808594 40.921875 C 98.933594 41.003906 98.933594 41.175781 98.808594 41.300781 C 98.5 41.636719 98.132812 41.910156 97.71875 42.101562 C 97.203125 42.332031 96.648438 42.445312 96.085938 42.441406 C 95.539062 42.441406 95.035156 42.355469 94.574219 42.1875 C 94.113281 42.035156 93.683594 41.792969 93.316406 41.46875 C 92.957031 41.140625 92.675781 40.734375 92.488281 40.28125 C 92.300781 39.828125 92.210938 39.34375 92.226562 38.851562 C 92.214844 38.359375 92.3125 37.867188 92.507812 37.417969 C 92.703125 36.964844 92.992188 36.5625 93.359375 36.234375 C 93.726562 35.914062 94.15625 35.667969 94.617188 35.515625 C 95.035156 35.347656 95.539062 35.261719 96.085938 35.261719 C 96.585938 35.261719 97.046875 35.347656 97.425781 35.515625 C 97.84375 35.6875 98.179688 35.9375 98.472656 36.234375 C 98.757812 36.570312 98.96875 36.957031 99.101562 37.375 C 99.269531 37.796875 99.351562 38.304688 99.351562 38.851562 L 99.351562 39.273438 C 99.351562 39.402344 99.226562 39.527344 99.101562 39.527344 L 94.699219 39.527344 C 94.535156 39.527344 94.40625 39.695312 94.449219 39.824219 C 94.574219 40.078125 94.742188 40.289062 94.953125 40.457031 C 95.203125 40.710938 95.582031 40.835938 96 40.835938 C 96.335938 40.835938 96.628906 40.75 96.878906 40.625 L 97.382812 40.203125 C 97.46875 40.078125 97.59375 40.078125 97.71875 40.160156 Z M 102.035156 35.433594 C 102.160156 35.433594 102.203125 35.558594 102.203125 35.601562 L 102.203125 36.570312 C 102.398438 36.183594 102.6875 35.847656 103.042969 35.601562 C 103.292969 35.390625 103.671875 35.261719 104.132812 35.261719 L 104.464844 35.261719 C 104.675781 35.261719 104.800781 35.472656 104.800781 35.6875 L 104.800781 36.824219 C 104.800781 37.078125 104.632812 37.246094 104.382812 37.207031 C 104.242188 37.195312 104.101562 37.195312 103.964844 37.207031 C 103.636719 37.171875 103.304688 37.214844 103 37.332031 C 102.785156 37.449219 102.613281 37.625 102.496094 37.839844 C 102.367188 38.058594 102.28125 38.300781 102.246094 38.554688 L 102.246094 42.273438 C 102.246094 42.355469 102.121094 42.441406 102.035156 42.441406 L 100.359375 42.441406 C 100.3125 42.429688 100.269531 42.402344 100.238281 42.367188 C 100.207031 42.328125 100.191406 42.277344 100.191406 42.230469 L 100.191406 35.601562 C 100.191406 35.515625 100.234375 35.433594 100.359375 35.433594 Z M 56.183594 34.800781 C 54.628906 35.667969 53.25 36.832031 52.121094 38.21875 C 52.09375 38.246094 52.058594 38.269531 52.023438 38.285156 C 51.988281 38.300781 51.949219 38.308594 51.910156 38.308594 C 51.871094 38.308594 51.832031 38.300781 51.796875 38.285156 C 51.761719 38.269531 51.726562 38.246094 51.699219 38.21875 C 50.90625 37.515625 50.035156 36.910156 49.101562 36.402344 C 49.054688 36.378906 49.011719 36.34375 48.984375 36.300781 C 48.953125 36.253906 48.9375 36.203125 48.933594 36.148438 C 49.253906 35.714844 49.589844 35.292969 49.941406 34.882812 C 49.984375 34.824219 50.042969 34.785156 50.113281 34.769531 C 50.183594 34.753906 50.253906 34.765625 50.316406 34.800781 C 50.792969 35.058594 51.253906 35.339844 51.699219 35.644531 L 51.828125 35.601562 C 53.191406 34.261719 54.78125 33.171875 56.519531 32.394531 C 56.746094 32.296875 56.996094 32.289062 57.226562 32.367188 C 57.460938 32.441406 57.65625 32.601562 57.777344 32.816406 C 58.566406 34.257812 58.804688 35.941406 58.449219 37.550781 C 58.089844 39.160156 57.160156 40.582031 55.835938 41.546875 C 54.507812 42.511719 52.878906 42.957031 51.25 42.796875 C 49.621094 42.636719 48.109375 41.878906 46.992188 40.671875 C 45.878906 39.464844 45.242188 37.890625 45.199219 36.242188 C 45.160156 34.59375 45.71875 32.988281 46.769531 31.726562 C 47.824219 30.464844 49.296875 29.636719 50.914062 29.390625 C 52.535156 29.148438 54.183594 29.511719 55.558594 30.410156 C 55.59375 30.425781 55.621094 30.453125 55.644531 30.484375 C 55.664062 30.519531 55.675781 30.558594 55.675781 30.597656 C 55.675781 30.636719 55.664062 30.675781 55.644531 30.710938 C 55.621094 30.742188 55.59375 30.769531 55.558594 30.789062 C 54.984375 31.039062 54.425781 31.320312 53.878906 31.632812 C 53.839844 31.664062 53.789062 31.6875 53.738281 31.695312 C 53.6875 31.703125 53.636719 31.695312 53.585938 31.675781 C 52.601562 31.304688 51.519531 31.277344 50.515625 31.597656 C 49.515625 31.921875 48.648438 32.574219 48.058594 33.453125 C 47.46875 34.328125 47.1875 35.382812 47.261719 36.4375 C 47.335938 37.496094 47.761719 38.496094 48.46875 39.28125 C 49.175781 40.066406 50.125 40.589844 51.164062 40.765625 C 52.199219 40.941406 53.265625 40.761719 54.191406 40.253906 C 55.113281 39.75 55.84375 38.941406 56.257812 37.96875 C 56.671875 36.996094 56.75 35.90625 56.480469 34.882812 C 56.472656 34.851562 56.460938 34.820312 56.4375 34.796875 C 56.417969 34.773438 56.390625 34.753906 56.359375 34.746094 C 56.328125 34.738281 56.296875 34.738281 56.265625 34.746094 C 56.234375 34.757812 56.207031 34.773438 56.183594 34.800781 Z M 84.222656 37.289062 C 84.203125 37.316406 84.179688 37.335938 84.148438 37.351562 C 84.121094 37.367188 84.089844 37.375 84.054688 37.375 C 84.023438 37.375 83.992188 37.367188 83.960938 37.351562 C 83.933594 37.335938 83.90625 37.316406 83.886719 37.289062 C 83.757812 37.15625 83.601562 37.046875 83.429688 36.976562 C 83.253906 36.902344 83.070312 36.867188 82.882812 36.867188 L 82.378906 36.996094 C 82.210938 37.078125 82.128906 37.207031 82.128906 37.417969 C 82.128906 37.585938 82.210938 37.710938 82.378906 37.839844 L 83.007812 38.007812 L 83.847656 38.21875 C 84.140625 38.289062 84.421875 38.402344 84.683594 38.554688 C 84.894531 38.683594 85.105469 38.894531 85.269531 39.148438 C 85.4375 39.402344 85.523438 39.78125 85.523438 40.203125 C 85.535156 40.589844 85.429688 40.972656 85.230469 41.300781 C 85.058594 41.574219 84.828125 41.804688 84.558594 41.976562 C 84.265625 42.144531 83.929688 42.273438 83.59375 42.355469 C 82.785156 42.523438 81.949219 42.480469 81.164062 42.230469 C 80.773438 42.117188 80.414062 41.914062 80.117188 41.636719 C 80.078125 41.597656 80.054688 41.546875 80.054688 41.492188 C 80.054688 41.433594 80.078125 41.382812 80.117188 41.34375 L 81.039062 40.289062 C 81.121094 40.160156 81.246094 40.160156 81.375 40.289062 C 81.53125 40.46875 81.722656 40.609375 81.941406 40.707031 C 82.15625 40.800781 82.394531 40.84375 82.632812 40.835938 C 82.839844 40.835938 83.050781 40.835938 83.257812 40.710938 C 83.425781 40.667969 83.511719 40.539062 83.511719 40.328125 C 83.511719 40.160156 83.425781 40.035156 83.257812 39.90625 C 83.058594 39.8125 82.847656 39.738281 82.632812 39.695312 L 81.835938 39.527344 C 81.542969 39.453125 81.257812 39.339844 80.996094 39.191406 C 80.785156 39.0625 80.578125 38.851562 80.410156 38.597656 C 80.234375 38.292969 80.144531 37.941406 80.160156 37.585938 C 80.160156 37.164062 80.242188 36.824219 80.367188 36.53125 C 80.519531 36.246094 80.734375 36 80.996094 35.8125 C 81.25 35.621094 81.53125 35.480469 81.835938 35.390625 C 82.175781 35.300781 82.527344 35.257812 82.882812 35.261719 C 83.300781 35.261719 83.71875 35.347656 84.140625 35.472656 C 84.558594 35.558594 84.851562 35.726562 85.105469 35.980469 C 85.1875 36.066406 85.1875 36.234375 85.105469 36.320312 L 84.179688 37.289062 Z M 84.222656 37.289062 " fill-opacity="1" fill-rule="nonzero"/></g></svg>